<svg version="1.0" xmlns="http://www.w3.org/2000/svg"
 width="366.000000pt" height="365.000000pt" viewBox="0 0 366.000000 365.000000"
 preserveAspectRatio="xMidYMid meet">

<g transform="translate(0.000000,365.000000) scale(0.100000,-0.100000)"
fill="#000000" stroke="none">
<path d="M1547 3625 c-551 -89 -1012 -405 -1295 -885 -182 -309 -276 -715
-242 -1055 59 -613 378 -1125 888 -1426 262 -155 529 -232 852 -246 481 -20
924 135 1280 449 395 349 610 828 610 1362 0 302 -54 542 -182 804 -246 505
-706 860 -1273 982 -131 29 -501 37 -638 15z m1443 -804 c0 -243 -36 -413
-130 -616 -108 -235 -325 -514 -526 -677 l-62 -50 -4 -186 c-6 -242 -17 -273
-127 -383 -69 -68 -94 -85 -238 -157 -89 -45 -164 -82 -167 -82 -3 0 -6 115
-6 255 l0 255 -272 275 -272 275 -262 0 -262 0 75 148 c87 170 120 221 181
279 92 89 180 113 413 113 l147 0 41 53 c58 75 241 251 336 323 157 119 361
229 528 284 140 46 232 59 425 59 l182 1 0 -169z m-1765 -1601 l130 -130 -65
-66 c-47 -47 -87 -76 -145 -104 -77 -38 -210 -81 -287 -93 l-37 -6 6 32 c33
176 108 343 194 433 34 35 65 64 68 64 4 0 65 -58 136 -130z"/>
<path d="M2240 2450 c-78 -14 -129 -61 -150 -139 -18 -67 11 -143 75 -193 22
-17 44 -23 94 -26 83 -4 134 23 170 87 74 135 -39 298 -189 271z"/>
</g>
</svg>
